<svg width="210" height="110" viewBox="0 0 210 110" fill="none" xmlns="http://www.w3.org/2000/svg">
<path fill-rule="evenodd" clip-rule="evenodd" d="M40 67.1177L40.5523 74.0444L51.0466 76.538L59.0555 80.1399L65.4073 85.6812L68.4451 83.1876L72.3114 74.5985L76.7301 73.7673L92.7477 75.4297L98.2711 77.0921L96.3379 86.5124L94.4047 93.4391L126.44 91.4996L125.335 75.4297L118.707 60.7451L92.4716 48L72.8638 50.4936L59.0555 65.7323L52.9798 69.0572L42.2093 68.503" fill="#FF1D89"/>
<path fill-rule="evenodd" clip-rule="evenodd" d="M172.288 3.36855C174.447 5.99225 171.267 9.70254 169.464 11.5332C168.589 12.4221 167.863 13.4493 167.008 14.3602C166.163 15.2604 165.102 15.9689 164.343 16.8378C163.546 17.7504 162.626 18.7492 161.96 19.7758C161.538 20.4263 160.913 21.1527 160.703 21.9076C160.402 22.9931 160.654 22.3661 161.052 22.9798C161.458 23.6066 161.595 23.6427 161.733 24.5164C161.867 25.3657 162.057 25.9872 162.516 26.7128C163.272 27.9079 164.088 29.0315 164.621 30.3529C165.33 32.1104 165.831 33.8947 166.396 35.7028C166.616 36.4079 166.764 37.2156 167.119 37.8652C167.624 38.788 167.695 38.7107 168.445 38.1351C170.687 36.4171 172.954 34.601 175.29 32.9636C176.629 32.0256 178.019 31.1072 179.432 30.2855C180.401 29.7215 182.484 28.7178 182.97 27.671C183.613 26.2827 182.611 25.0089 183.99 23.7306C184.888 22.8981 186.351 22.4365 187.521 22.2344C189.174 21.9488 191.001 22.3567 192.652 22.5045C194.322 22.6536 195.955 22.4912 197.592 22.1496C200.098 21.6267 204.914 18.7334 206.538 22.2092C207.249 23.73 206.768 25.4152 206.635 26.9741C206.518 28.3327 206.12 29.7751 205.273 30.8926C204.306 32.1695 202.898 32.2364 201.433 32.5756C199.704 32.9758 197.929 33.1216 196.197 33.5122C195.343 33.7044 194.502 33.7981 193.626 33.8384C192.846 33.8746 191.722 33.5586 191.037 33.6583C190.389 33.7528 190.61 34.1624 190.155 34.4463C189.97 34.5615 189.593 34.4789 189.478 34.5717C189.161 34.8264 189.07 35.0482 188.839 35.5094C188.105 36.9747 186.995 38.403 186.052 39.7454C185.257 40.8762 184.337 42.2608 183.402 43.2698C181.421 45.4093 179.496 47.7667 177.541 50.0023C176.546 51.1398 175.353 52.3498 174.196 53.3276C173.84 53.6295 173.118 53.901 172.936 54.3236C172.676 54.926 173.384 56.2518 173.549 56.8572C173.941 58.2968 173.995 59.7837 174.411 61.2014C174.81 62.5573 174.955 64.0359 175.043 65.4492C175.243 68.6439 175.68 71.6739 175.577 74.8704C175.489 77.627 175.388 80.2705 174.431 82.9771C173.559 85.4406 170.949 88.1226 168.521 89.0302C167.076 89.5707 165.734 90.0618 164.28 90.3549C162.844 90.6443 161.33 90.9407 159.904 91.3481C157.259 92.1038 154.47 92.6317 151.723 92.8905C148.206 93.2216 144.537 93.2534 141.029 93.1316C139.43 93.0761 137.786 93.0728 136.207 93.0775C134.571 93.0824 133.03 93.4048 131.395 93.5763C125.624 94.1815 119.526 93.6951 113.758 94.287C110.908 94.5795 108.061 95.1427 105.161 95.1764C102.565 95.2062 99.9323 95.0349 97.3932 95.0236C96.588 95.02 95.8863 95.0844 95.0817 94.8996C94.6573 94.8021 94.0608 94.4226 93.6323 94.6413C93.2581 94.8322 92.9758 95.6373 92.7438 95.9801C92.2369 96.73 91.6191 97.3322 90.9668 97.9539C88.3775 100.422 85.8116 101.253 82.4132 102.157C80.8531 102.573 80.083 102.79 78.7732 103.74C77.7062 104.514 76.6265 105.07 75.3983 105.526C72.9894 106.421 70.1487 105.729 67.8847 104.952C66.7885 104.577 65.6365 104.235 64.5165 103.788C62.9909 103.181 61.7318 102.171 60.2283 101.55C60.4007 103.154 58.6607 103.693 58.1329 104.771C57.7918 105.468 57.9985 106.562 57.6348 107.349C57.2976 108.079 56.7761 108.77 55.963 108.961C54.8548 109.221 52.8739 107.989 52.0955 107.269C51.6634 106.87 51.2777 105.806 50.7484 105.629C50.0583 105.398 48.7932 106.419 48.1401 106.65C45.0141 107.753 41.8464 108.274 38.49 107.834C35.0892 107.389 31.9717 106.181 28.7825 105.036C22.5366 102.793 17.1 99.1015 12.2091 94.6563C11.9371 94.4088 11.5422 94.1884 11.3546 93.8641C11.1907 93.581 11.205 92.9126 11.098 92.7546C10.7793 92.2842 10.3019 92.3673 9.70424 92.3223C7.85773 92.1828 6.39089 91.737 4.95964 90.4996C2.70696 88.5518 1.87365 84.0107 5.3269 82.8045C6.2096 82.4959 7.18115 82.4346 8.09364 82.6247C8.47001 82.7031 9.87008 83.5516 10.2277 83.4947C10.7699 83.4085 10.6645 82.7106 10.8085 82.3377C11.1738 81.3928 11.6879 80.5608 12.3076 79.759C13.3377 78.426 14.5929 77.0861 15.8809 76.0015C17.2802 74.8226 18.8209 74.2995 20.4867 73.6468C21.6089 73.2071 23.7995 72.4522 24.9882 72.8455C26.5362 73.3579 25.7785 75.0497 24.8031 75.6413C23.4099 76.4868 21.7381 76.8331 20.3264 77.6886C18.7685 78.6326 17.3456 79.9256 15.9198 81.0602C14.7725 81.9734 13.7783 83.1003 12.6128 83.9759C12.3038 84.2079 11.7991 84.6139 11.7031 84.7421C11.6697 84.7865 11.7108 85.1475 11.5579 85.308C10.88 86.0198 11.0386 85.9394 10.0177 85.6897C8.8141 85.3953 5.94085 84.7294 5.12934 86.2217C4.39895 87.5646 7.38837 88.7747 8.36985 89.1843C9.81075 89.7853 10.1474 90.3891 11.1769 91.5346C12.2315 92.7087 13.9834 93.5067 15.3045 94.382C18.1601 96.2735 21.37 97.6155 24.4281 99.1184C27.404 100.581 30.6031 101.633 33.704 102.656C35.5762 103.274 37.8198 103.937 39.7847 104.127C41.7645 104.319 43.6212 103.996 45.5637 103.618C46.3405 103.467 46.9268 103.351 47.7392 103.065C48.1009 102.937 48.6911 102.918 48.9784 102.695C49.4237 102.349 49.2386 102.073 49.3175 101.482C49.6624 98.8897 51.4603 101.783 52.2561 102.646C52.8701 103.312 53.4746 104.131 54.2828 104.553C55.2958 105.081 55.4715 104.832 55.8035 103.961C56.4249 102.328 56.6586 100.473 59.0067 100.713C57.1528 99.127 55.386 97.7793 53.7991 95.8732C52.2335 93.9928 50.7697 91.9721 49.2684 90.0394C48.0377 88.4554 46.966 86.2695 45.3686 85.0199C44.8637 84.6249 43.3287 83.7149 42.7443 83.7339C41.8699 83.7624 41.0934 85.1912 40.1514 85.3099C39.1109 85.4414 38.6318 85.0782 38.3347 84.2333C38.0264 83.3569 38.7632 82.3482 38.5143 81.711C38.445 81.5336 38.0022 81.3212 37.8653 81.0638C37.6595 80.6771 37.6446 80.1683 37.7061 79.7402C37.798 79.1011 38.024 78.8403 37.9757 78.1973C37.9197 77.4502 37.5921 76.9038 37.8501 76.1225C38.1208 75.3016 38.9538 74.8519 39.4737 74.2456C40.2606 73.3281 39.8586 72.6362 39.543 71.4573C38.8669 68.935 38.0786 66.4414 37.3926 63.9204C35.8151 64.4195 34.2727 64.9855 32.6869 65.4506C31.1616 65.8984 29.274 66.3 27.8587 67.0059C27.0083 67.4302 27.2445 67.0405 27.3074 67.9826C27.3477 68.5925 27.6054 69.2742 27.7252 69.8755C27.9462 70.9864 28.0425 73.8529 28.9125 74.3835C29.4393 74.705 30.2869 74.2379 30.8661 74.887C31.3539 75.4328 31.2077 76.2269 31.5013 76.8337C31.6837 77.211 32.0366 77.3546 32.2562 77.7013C32.7148 78.426 32.666 79.0353 32.7468 79.8477C32.7976 80.3589 32.7189 81.8908 32.9734 82.2882C33.3127 82.8183 33.9852 82.7263 34.5522 82.8915C35.981 83.3074 37.2969 84.0311 38.5102 84.8749C39.1398 85.645 43.6463 90.1535 41.6891 90.7272C40.7441 91.0042 39.0719 88.8752 38.3918 88.2963C37.3375 87.3995 36.2332 86.8103 34.9476 86.3156C31.81 85.1083 28.9713 84.0234 25.5544 84.5247C24.0895 84.7393 22.3101 85.3881 20.8385 85.2453C19.3576 85.1017 19.7412 83.7806 20.6672 83.0434C21.4953 82.3844 22.6478 82.5697 23.0112 81.4646C23.3779 80.3482 22.9842 78.9373 23.5727 77.8186C24.0752 76.8632 25.2598 75.8717 26.1742 75.3181C26.5729 75.077 27.2564 74.9085 27.4647 74.553C27.6355 74.2614 26.9316 72.5895 26.8339 72.242C26.356 70.5395 25.8351 68.8353 25.4303 67.1142C25.055 65.5191 24.9573 64.6924 26.6375 64.1135C29.2017 63.2296 31.8901 62.8164 34.4554 62.0038C34.0006 60.8192 32.5793 61.816 31.5584 61.7749C30.3079 61.7246 28.8609 61.313 27.67 60.9288C24.9664 60.0563 23.1268 57.8809 22.7091 55.0757C22.6172 54.4603 22.9066 53.2262 22.6826 52.6821C22.4712 52.1681 21.8736 51.9181 21.4368 51.5519C20.311 50.6083 19.3138 49.3129 18.7064 47.9722C18.0977 46.6285 18.0552 45.119 18.409 43.7009C18.6038 42.9195 18.7139 42.8121 18.4385 42.0732C18.1195 41.2187 17.5994 40.4577 17.3053 39.5794C16.8235 38.1409 16.5608 36.59 16.587 35.0708C16.6168 33.3666 17.3003 32.6021 17.7531 31.0995C18.1104 29.9135 17.6229 28.2742 17.7045 26.9581C17.8091 25.274 18.2401 23.9212 18.9843 22.4222C20.1277 20.1192 21.9384 17.6504 24.2951 16.4428C24.7611 16.2039 25.5271 16.1898 25.9435 15.9122C26.4609 15.5673 26.5014 15.0588 26.704 14.4544C27.1871 13.0132 27.7903 11.8456 28.835 10.7438C32.2231 7.17055 38.1603 5.90496 42.9217 6.20658C43.7768 6.26099 44.5919 6.66564 45.4023 6.42782C45.9638 6.26293 46.5587 5.67792 47.1376 5.43568C47.8702 5.12909 48.6042 4.94984 49.3925 4.87139C50.9493 4.71617 52.2156 4.88023 53.6504 5.40585C54.192 5.60445 54.7108 5.82127 55.2447 6.03671C56.0877 6.37728 56.0397 6.21514 56.8324 6.05715C58.4124 5.74255 59.3202 5.97539 60.72 6.64962C61.093 6.82915 61.6832 6.96256 62.0039 7.21418C62.458 7.57077 62.6432 8.65433 63.1487 8.85652C63.429 8.96893 64.296 8.55545 64.6575 8.49662C65.2954 8.39249 65.9201 8.48419 66.5548 8.47728C67.6786 8.46513 68.8665 8.50684 69.8927 9.03826C70.6656 9.43821 71.5957 10.2099 72.2613 10.724C73.182 11.4349 73.7574 12.7792 74.9071 13.1515C75.3575 13.2974 75.8448 13.1499 76.3045 13.2742C76.9038 13.436 77.4794 13.8702 77.9647 14.2536C78.7997 14.9129 79.5058 16.4456 80.3565 16.7135C80.9241 16.8925 81.8065 16.7058 82.456 16.8911C83.2711 17.1237 83.9469 17.4607 84.5511 18.0774C85.7037 19.2541 86.0293 20.9934 86.0787 22.5887C86.0919 23.0188 85.8268 24.2313 86.0845 24.6131C86.3132 24.9517 87.1752 25.147 87.5262 25.4944C88.6233 26.5808 89.1189 28.391 89.2298 29.8792C89.3567 31.5774 88.9183 32.7742 88.6164 34.3991C88.4285 35.4119 88.1854 34.7631 89.04 35.3597C89.6269 35.7694 90.0322 36.0558 90.4127 36.6988C91.2085 38.0431 91.4085 39.628 91.2772 41.1601C91.113 43.0717 90.1437 44.4964 89.7077 46.305C91.7165 46.305 93.8803 46.8359 95.8427 47.2063C96.5668 47.343 97.1277 47.741 97.7704 48.0603C98.325 48.3357 98.7386 48.3677 99.262 48.5503C100.528 48.992 100.284 48.9182 101.165 48.0145C104.674 44.4144 109.67 42.2409 114.707 42.3116C117.517 42.3508 120.235 42.7218 122.862 43.7332C123.951 44.1523 125.161 44.6041 126.127 45.2615C127.246 46.0233 127.412 46.0144 128.892 46.0454C134.248 46.1564 139.446 49.0334 143.344 52.5205C143.692 50.1816 147.491 48.779 149.331 47.8095C149.959 47.4784 150.537 47.3057 150.846 46.6851C151.136 46.1042 151.119 44.9093 151.312 44.2252C151.667 42.9687 152.077 41.4313 152.045 40.1064C151.953 36.2701 151.066 32.4516 150.951 28.6065C150.922 27.6408 150.812 26.557 150.941 25.6008C151.044 24.8304 151.396 24.3501 150.89 23.6369C149.93 22.2832 148.161 21.9452 147.566 20.1631C146.607 17.2913 148.254 14.3547 150.503 12.6466C151.798 11.6633 153.063 11.4551 154.101 10.0765C155.035 8.83442 155.825 7.36555 156.891 6.23641C157.784 5.28985 158.598 4.0215 159.622 3.23376C160.671 2.42613 162.213 1.88006 163.466 1.49641C166.476 0.574984 170.171 0.794847 172.288 3.36855ZM78.226 75.5101C77.526 75.5399 76.8215 75.6187 76.1201 75.6178C75.6935 75.6173 74.7021 75.3869 74.3178 75.5493C73.5496 75.8744 72.9279 77.6532 72.5689 78.3631C71.4059 80.6644 70.4901 83.0774 69.3555 85.3876C68.7652 86.5893 67.8839 87.3796 66.4913 87.3989C64.9309 87.4204 64.1967 86.4206 63.2064 85.3947C61.2318 83.3483 58.5738 81.5892 56.1227 80.1659C53.4752 78.629 50.3183 77.1395 47.304 76.5967C45.2966 76.2354 40.6977 74.6768 39.4765 77.1947C40.1006 77.1113 42.4827 76.747 42.5837 77.8026C42.6596 78.5948 39.7292 78.7301 39.3672 79.9722C40.1334 79.9126 42.7782 79.1743 42.9642 80.3131C43.063 80.9185 41.9579 81.2235 41.5691 81.4276C40.7987 81.8328 40.3349 82.2534 39.7284 82.8625C40.6641 82.8625 41.5865 82.0678 42.475 82.1507C42.8414 82.1849 43.2821 82.7329 43.6154 82.9C44.0883 83.1367 44.5988 83.2547 45.1203 83.3193C46.2558 83.4599 46.9431 83.1395 47.8484 83.8792C48.6613 84.5432 49.5065 85.4199 50.2554 86.159C51.8535 87.737 53.1692 89.7398 54.5403 91.513C56.2331 93.7022 57.991 95.4401 60.2429 97.08C62.0759 98.4143 63.9337 99.2786 66.0106 100.261C68.0481 101.225 70.6106 102.343 72.9221 102.396C74.7659 102.438 77.0704 101.847 78.7484 101.06C79.7243 100.602 80.0792 100.603 81.0557 100.422C82.5714 100.14 84.3257 99.3266 85.7288 98.6883C90.1349 96.6836 92.927 92.3146 94.9137 88.038C96.0444 85.6041 96.7508 83.226 97.2221 80.5926C97.4787 79.158 97.7025 78.8213 96.3049 78.228C94.8933 77.6289 93.3676 77.2585 91.8983 76.8353C87.5886 75.5943 82.6762 75.3206 78.226 75.5101ZM88.7541 49.5507C88.3145 49.7488 88.0808 51.8629 87.8833 52.3338C87.0028 54.4355 85.4407 55.7469 83.15 55.9656C82.4389 56.0336 81.2792 55.3862 80.7695 55.6922C80.0872 56.1021 79.9638 58.0612 79.2296 58.704C78.5535 59.2959 77.1452 59.9215 76.2782 60.1491C75.6088 60.3248 74.9449 60.2764 74.278 60.1217C73.8975 60.0336 73.1718 59.5635 72.7993 59.7409C72.165 60.043 71.8661 61.6519 71.1421 62.1977C70.0834 62.9957 68.4021 63.5868 67.1061 63.5719C65.7695 63.5564 64.1583 62.5004 62.9682 62.7532C61.5555 63.0531 61.7412 64.3673 61.1245 65.3945C59.8146 67.576 58.3263 69.4551 55.9715 70.4967C53.4244 71.623 49.7733 71.7664 47.1018 71.1933C45.6495 70.8817 44.1921 70.4411 42.9664 69.6086C41.9899 68.9453 41.2569 68.0619 40.3526 67.3124L40.2047 67.1925L40.2121 67.219C40.2322 67.2889 40.2526 67.357 40.2733 67.4233C40.7041 68.7966 40.8953 71.2333 41.7509 72.3533C42.5166 73.3557 45.1752 73.4118 46.4553 73.5465C49.8853 73.9081 52.835 74.711 55.8609 76.4318C58.757 78.0788 61.4023 80.072 63.9097 82.22C64.4249 82.6611 64.8366 83.3685 65.4596 83.6524C66.4772 84.1159 66.395 83.5748 66.664 82.6686C67.2162 80.81 67.8017 78.974 68.643 77.222C69.0031 76.471 69.8229 75.5408 69.9986 74.7433C70.167 73.9783 69.8212 73.1436 69.9388 72.3221C70.2354 70.247 71.1722 68.4776 72.3462 66.7993C73.1613 65.6346 75.6 63.6514 75.2885 66.5831C75.0584 68.748 73.4778 70.666 73.089 72.793C74.2874 72.5696 75.0396 72.6348 76.1185 72.703C77.5906 72.7961 79.2646 72.2199 80.7822 72.2149C83.6916 72.2058 86.5574 72.3956 89.4172 72.914C90.7416 73.1543 92.0026 73.4258 93.2796 73.8791C94.2829 74.2351 95.617 75.3692 96.686 75.4557C97.4608 75.5184 97.1906 75.62 97.4014 74.9588C97.5974 74.3453 97.3868 73.2416 97.3476 72.598C97.2588 71.1416 96.9097 69.7241 96.7287 68.2773C96.6512 67.6564 95.9103 65.0684 96.692 64.5668C97.8885 63.7992 98.3884 66.8109 98.5408 67.3504C99.3211 70.1158 99.823 72.8403 99.7998 75.7316C99.7794 78.2321 99.6133 80.6357 99.1456 83.1215C98.8691 84.5899 98.362 86.0002 97.793 87.3771C97.4933 88.1024 95.7354 90.8518 95.9799 91.336C96.1758 91.724 99.163 91.0484 99.6224 91.0092C101.258 90.8692 102.897 90.9667 104.534 90.8695C106.954 90.7255 109.391 90.7551 111.708 90.3286C113.09 90.074 114.556 90.3173 115.936 90.3262C117.458 90.3361 118.929 90.1955 120.462 90.3408C121.625 90.4507 123.371 91.065 124.494 90.8098C125.643 90.5485 125.304 89.7793 125.312 88.6092C125.33 85.7823 125.079 82.5291 124.447 79.7803C124.114 78.331 123.667 76.9281 123.428 75.4549C123.189 73.981 123.201 72.3881 122.757 70.961C121.968 68.4287 119.8 66.2306 118.005 64.3593C116.157 62.4336 114.101 61.0354 111.834 59.6544C109.907 58.4808 107.871 57.3787 105.784 56.4606C103.278 55.3585 100.433 54.6791 98.1111 53.2282C96.1788 52.0209 93.3839 50.8304 91.1547 50.2714C90.8018 50.183 89.0035 49.4386 88.7541 49.5507ZM157.579 26.1477C155.972 26.3736 152.966 25.5883 152.968 27.8049C152.968 29.0208 153.372 30.2957 153.486 31.5122C153.621 32.9476 153.528 34.3922 153.746 35.8221C154.1 38.1367 154.62 40.2743 154.446 42.6524C154.256 45.2375 153.718 47.7214 153.768 50.3434C153.815 52.8387 153.681 55.2448 154.867 57.5345C155.367 58.5012 155.773 59.637 156.323 60.5416C156.969 61.6017 157.527 61.9121 158.68 62.3391C159.402 62.6065 161.181 62.9545 161.648 63.6752C162.324 64.7154 161.422 65.136 160.534 65.1007C157.79 64.9916 154.974 63.7674 152.402 62.8733C151.191 62.4524 150.027 61.9223 148.837 61.463C147.887 61.0959 147.112 60.9692 146.248 60.343C144.142 58.8169 142.516 56.7078 140.439 55.1426C136.51 52.1813 131.799 50.4133 126.864 49.8888C125.594 49.7537 124.611 49.8145 123.339 49.9222C122.635 49.9819 121.938 50.0009 121.242 50.1302C120.839 50.2051 119.326 50.924 119.012 50.7746C116.97 49.804 122.751 46.8494 123.401 46.6878C122.58 46.1092 120.874 46.2089 119.889 46.0802C118.631 45.9156 117.408 45.7551 116.138 45.8244C114.362 45.9216 112.473 45.8692 110.73 46.2525C108.546 46.7326 106.478 47.4698 104.504 48.5042C103.845 48.8494 102.919 49.2693 102.925 50.2316C102.931 51.1359 103.291 50.9878 104.171 51.1881C106.544 51.7281 108.739 53.3003 110.852 54.4982C113.099 55.7715 115.337 57.2022 117.423 58.728C121.42 61.6533 123.701 65.8619 125.477 70.4367C126.395 72.8027 127.061 75.5659 127.337 78.0877C127.645 80.8934 127.388 83.7151 127.608 86.5178C127.659 87.1802 127.748 89.8232 128.248 90.235C128.627 90.5474 130.508 89.9889 131.039 89.9524C133.256 89.7997 135.486 89.8149 137.661 89.6895C142.258 89.4246 146.97 89.7942 151.609 89.5216C153.942 89.3843 156.201 89.0562 158.489 88.5852C160.616 88.1477 163.267 88.0955 165.207 87.0846C168.941 85.1387 171.218 80.4476 171.382 76.4754C171.56 72.1696 171.265 67.4841 170.361 63.1946C169.887 60.9454 169.476 58.8048 168.918 56.5821C168.294 54.0938 167.593 51.6162 166.907 49.1585C165.726 44.9281 163.889 40.9869 163.009 36.651C162.525 34.266 161.839 31.7724 161.124 29.4445C160.86 28.5866 160.34 26.9567 159.726 26.3048C159.081 25.6204 158.539 26.0129 157.579 26.1477ZM26.5376 77.6706C25.5693 78.2901 24.8712 79.683 24.9154 80.8315C24.9154 82.3473 26.1736 81.7016 27.3593 81.7565C28.0811 81.79 30.7505 82.5305 31.2198 81.8156C31.7802 80.9619 30.0949 81.3431 29.8816 80.8851C29.4503 79.959 31.4279 79.5679 31.1862 78.7652C30.9444 77.9628 28.9351 79.8148 28.5044 78.8829C28.1057 78.0203 30.1354 77.2742 29.8239 76.6801C29.5596 76.1766 26.8797 77.4513 26.5376 77.6706ZM30.7421 69.7727C30.7371 70.4188 30.5144 71.2781 29.7112 71.1463C28.7082 70.9817 28.4041 69.056 28.3125 68.3273C28.9549 65.9282 30.7528 68.3011 30.7421 69.7727ZM59.866 49.153C58.7062 49.3347 58.5754 49.854 58.0332 50.6509C57.7857 50.4537 57.6323 50.1921 57.5733 49.8662C54.8314 51.1014 51.9785 52.0664 49.0046 52.523C45.6909 53.0321 42.2344 52.2617 38.8675 51.9479C38.4318 51.9073 37.0944 51.3687 36.7392 51.5825C36.4454 51.7596 36.4503 53.2456 36.4263 53.5328C36.2627 55.4906 36.636 57.2202 36.9236 59.1362C37.0003 59.6464 36.9249 60.7512 37.327 61.1865C37.6098 61.4926 38.1131 61.3813 38.4712 61.8433C39.4367 63.0902 39.7378 65.5051 40.1823 67.1131L40.1933 67.1522L40.1954 67.1234C40.333 65.4841 41.6144 66.3262 42.568 66.756C44.0014 67.4023 45.5036 67.7478 47.0543 67.9652C48.3012 68.1401 49.7159 68.558 50.9951 68.4911C52.3386 68.4212 53.9912 67.8893 55.2991 67.5064C56.5383 67.1441 57.222 66.3596 58.0774 65.3495C58.8944 64.3847 59.7835 63.724 60.6653 62.8631C62.8866 60.6943 62.2784 56.2007 60.3488 54.0781C61.9101 53.2768 64.6175 51.5154 62.2431 49.7289C61.6294 49.2668 60.606 49.037 59.866 49.153ZM40.1933 67.1522L40.1911 67.1816L40.2047 67.1925L40.1933 67.1522ZM47.7996 63.429C48.4152 63.4757 48.8576 63.9386 48.6956 64.5766C48.4908 65.3826 47.0897 65.8875 46.3891 65.9322C44.5324 66.1543 46.2887 63.3149 47.7996 63.429ZM41.936 60.3278C42.0025 60.7957 41.9365 61.0874 42.3421 61.2393C42.6523 61.3556 43.2384 61.1164 43.6197 61.278C44.0002 61.4396 44.0123 61.5373 44.2461 61.9168C43.9814 62.7449 42.7671 63.6815 41.7928 63.1835C40.5812 62.5643 40.4683 60.1218 40.8005 59.0794C41.3634 57.3127 41.8366 59.6299 41.936 60.3278ZM149.669 50.9994C149.163 51.1831 148.717 51.7038 148.265 51.9872C147.063 52.7409 145.748 53.1412 144.596 53.9665C145.418 54.8539 145.849 56.0574 146.652 56.9114C147.155 57.4458 147.766 57.5052 148.371 57.7953C150.137 58.6429 152.216 59.8353 154.168 60.2405C153.025 58.9037 152.3 57.6942 151.622 56.0698C151.379 55.4889 151.075 54.8746 150.893 54.2714C150.633 53.4074 150.773 52.4932 150.552 51.6405C150.314 50.7202 150.643 50.6459 149.669 50.9994ZM38.603 56.0606C39.1168 56.6671 39.5117 58.0341 39.5553 58.8086C39.0133 61.4046 37.1988 57.8228 37.254 56.6602C37.3053 55.588 37.8682 55.1938 38.603 56.0606ZM43.519 54.64C44.3994 55.391 44.687 56.6453 44.7783 57.6816C44.8776 58.805 44.621 59.2825 43.5021 58.5605C42.5226 57.9283 42.0325 56.2451 41.9818 55.2587C41.9818 54.1346 42.6658 53.9122 43.519 54.64ZM61.2323 51.4247C61.4523 52.5969 58.8563 53.8018 59.2801 51.9661C59.1952 50.7947 60.9989 50.1829 61.2323 51.4247ZM183.801 30.2107C181.84 32.6046 179.466 34.1245 177.012 35.9334C174.839 37.536 172.769 39.2672 170.416 40.5975C169.725 40.9883 168.594 41.2156 168.469 41.9415C168.351 42.624 169.618 44.4569 169.911 45.1969C170.899 47.6924 171.629 50.2534 172.401 52.8285C174.704 49.2389 177.027 45.5896 179.85 42.3439C182.341 39.4797 184.896 36.4825 187.074 33.3962C185.756 32.5932 184.664 31.4859 183.801 30.2107ZM198.174 24.6901C195.99 25.3726 193.474 25.7568 191.198 25.5243C190.167 25.4187 189.15 25.3309 188.109 25.2666C187.329 25.2185 186.01 24.8382 185.339 25.4392C184.705 26.0073 184.781 27.1381 185.104 27.8444C185.313 28.301 185.603 28.3747 185.793 28.7529C185.854 28.8747 185.673 29.0851 185.83 29.3716C186.261 30.1599 187.73 31.4771 188.521 31.8784C189.536 32.3935 189.688 31.7945 190.479 31.2755C192.145 30.1831 194.943 30.1632 196.894 29.9665C196.934 30.3863 202.589 28.3681 203.147 27.9977C204.191 27.3052 205.414 24.1181 204.304 23.1735C202.963 22.0333 199.47 24.2844 198.174 24.6901ZM160.142 9.49787C159.454 10.5933 158.54 11.7694 157.525 12.5889C156.378 13.5145 154.89 13.8738 153.579 14.5072C152.391 15.0806 151.336 15.6551 150.595 16.7616C150.082 17.5269 149.142 18.6008 149.57 19.5872C150.009 20.5962 151.736 21.3038 152.486 22.1808C153.519 23.3881 153.52 23.1511 155.068 22.8174C155.841 22.6506 156.575 22.5987 157.365 22.6263C157.685 22.6373 158.763 22.9506 159.047 22.7404C159.409 22.4711 159.053 21.353 159.099 20.9179C159.169 20.2562 159.404 19.5734 159.627 18.9494C160.511 16.4724 162.192 14.8389 163.826 12.9607C165.579 10.9455 167.982 9.53101 169.71 7.50641C170.663 6.3886 170.229 5.59837 168.92 5.07496C168.255 4.80925 167.475 4.81035 166.793 4.5985C166.087 4.37947 165.458 3.94803 164.702 3.93947C161.488 3.81048 161.385 7.51553 160.142 9.49787Z" fill="#121212"/>
</svg>
